<svg width="13.803711" height="13.779907" viewBox="0 0 13.8037 13.7799" fill="none" xmlns="http://www.w3.org/2000/svg" xmlns:xlink="http://www.w3.org/1999/xlink">
	<desc>
			Created with Pixso.
	</desc>
	<defs/>
	<path id="Vector" d="M1.65918 0C0.742188 0 0.000244141 0.743408 0 1.6582C0 2.57385 0.742188 3.31714 1.65918 3.31714C2.57373 3.31714 3.31689 2.57385 3.31689 1.6582C3.31689 0.743286 2.57373 0 1.65918 0Z" fill="#000000" fill-opacity="1.000000" fill-rule="nonzero"/>
	<path id="Vector" d="M0.228271 4.57538L3.08911 4.57538L3.08911 13.7799L0.228271 13.7799L0.228271 4.57538Z" fill="#000000" fill-opacity="1.000000" fill-rule="nonzero"/>
	<path id="Vector" d="M10.3721 4.34656C8.98047 4.34656 8.04736 5.10956 7.66528 5.83313L7.62695 5.83313L7.62695 4.57544L4.8833 4.57544L4.88306 4.57544L4.88306 13.7798L7.74146 13.7798L7.74146 9.22632C7.74146 8.02588 7.96997 6.86316 9.45825 6.86316C10.9253 6.86316 10.9448 8.23608 10.9448 9.30334L10.9448 13.7797L13.8037 13.7797L13.8037 8.73108C13.8037 6.25293 13.269 4.34656 10.3721 4.34656Z" fill="#000000" fill-opacity="1.000000" fill-rule="nonzero"/>
</svg>
