<svg width="15.000488" height="15.003235" viewBox="0 0 15.0005 15.0032" fill="none" xmlns="http://www.w3.org/2000/svg" xmlns:xlink="http://www.w3.org/1999/xlink">
	<desc>
			Created with Pixso.
	</desc>
	<defs/>
	<path id="Vector" d="M14.9622 4.41101C14.927 3.61383 14.7981 3.0658 14.6135 2.59088C14.4231 2.08679 14.1299 1.63544 13.7458 1.26031C13.3708 0.879272 12.9165 0.583191 12.4182 0.395691C11.9407 0.210999 11.3953 0.0820923 10.5981 0.046936C9.79517 0.00878906 9.54004 0 7.50317 0C5.46606 0 5.21118 0.00878906 4.41089 0.0439453C3.61377 0.0791016 3.06567 0.20813 2.59106 0.3927C2.08667 0.583191 1.6355 0.876282 1.26025 1.26031C0.87915 1.63544 0.583252 2.08978 0.395752 2.58801C0.210938 3.0658 0.0820312 3.61084 0.046875 4.40802C0.00878906 5.21118 0 5.46613 0 7.50311C0 9.5401 0.00878906 9.79504 0.0439453 10.5952C0.0791016 11.3924 0.208252 11.9404 0.392822 12.4153C0.583252 12.9194 0.87915 13.3707 1.26025 13.7459C1.6355 14.127 2.08984 14.423 2.58789 14.6105C3.06567 14.7952 3.61084 14.9241 4.4082 14.9593C5.20825 14.9946 5.46338 15.0032 7.50024 15.0032C9.53711 15.0032 9.79224 14.9946 10.5923 14.9593C11.3896 14.9241 11.9375 14.7952 12.4124 14.6105C13.4207 14.2207 14.2178 13.4235 14.6077 12.4153C14.7922 11.9376 14.9214 11.3924 14.9563 10.5952C14.9915 9.79504 15.0005 9.5401 15.0005 7.50311C15.0005 5.46613 14.9973 5.21118 14.9622 4.41101ZM13.6111 10.5366C13.5789 11.2693 13.4558 11.665 13.3533 11.9288C13.1011 12.5824 12.5823 13.1011 11.9287 13.3532C11.665 13.4558 11.2664 13.5789 10.5366 13.6111C9.74536 13.6463 9.50781 13.655 7.5061 13.655C5.50415 13.655 5.26392 13.6463 4.47559 13.6111C3.74268 13.5789 3.34717 13.4558 3.08325 13.3532C2.75806 13.233 2.46191 13.0425 2.22168 12.7934C1.97241 12.5501 1.78198 12.257 1.66187 11.9318C1.55933 11.668 1.43604 11.2693 1.40405 10.5396C1.36865 9.74823 1.36011 9.5108 1.36011 7.50897C1.36011 5.50714 1.36865 5.26678 1.40405 4.47845C1.43604 3.74573 1.55933 3.35004 1.66187 3.08624C1.78198 2.76086 1.97241 2.4649 2.22461 2.22449C2.46777 1.9754 2.76099 1.78485 3.08618 1.66479C3.3501 1.56219 3.74878 1.43915 4.47852 1.40686C5.26978 1.3717 5.50732 1.36285 7.50903 1.36285C9.51367 1.36285 9.75098 1.3717 10.5396 1.40686C11.2722 1.43915 11.668 1.56219 11.9316 1.66479C12.2571 1.78485 12.553 1.9754 12.7935 2.22449C13.0425 2.46777 13.2329 2.76086 13.3533 3.08624C13.4558 3.35004 13.5789 3.7486 13.6111 4.47845C13.6462 5.26978 13.655 5.50714 13.655 7.50897C13.655 9.5108 13.6462 9.74524 13.6111 10.5366Z" fill="#000000" fill-opacity="1.000000" fill-rule="nonzero"/>
	<path id="Vector" d="M7.50342 3.64893C5.37549 3.64893 3.64917 5.37518 3.64917 7.50305C3.64917 9.63092 5.37549 11.3572 7.50342 11.3572C9.6311 11.3572 11.3574 9.63092 11.3574 7.50305C11.3574 5.37518 9.6311 3.64893 7.50342 3.64893ZM7.50342 10.0032C6.1228 10.0032 5.00317 8.88354 5.00317 7.50305C5.00317 6.12256 6.1228 5.00299 7.50342 5.00299C8.88379 5.00299 10.0034 6.12256 10.0034 7.50305C10.0034 8.88354 8.88379 10.0032 7.50342 10.0032Z" fill="#000000" fill-opacity="1.000000" fill-rule="nonzero"/>
	<path id="Vector" d="M12.4094 3.49658C12.4094 3.99347 12.0066 4.3963 11.5095 4.3963C11.0127 4.3963 10.6099 3.99347 10.6099 3.49658C10.6099 2.99957 11.0127 2.5968 11.5095 2.5968C12.0066 2.5968 12.4094 2.99957 12.4094 3.49658Z" fill="#000000" fill-opacity="1.000000" fill-rule="nonzero"/>
</svg>
