<svg width="90.000000" height="62.823059" viewBox="0 0 90 62.8231" fill="none" xmlns="http://www.w3.org/2000/svg" xmlns:xlink="http://www.w3.org/1999/xlink">
	<desc>
			Created with Pixso.
	</desc>
	<defs/>
	<path id="Vector" d="M33.1108 10.1733L25.0059 4.68558C24.4207 4.29129 23.6274 4.44543 23.229 5.02609C22.834 5.61035 22.9849 6.4061 23.5698 6.80035L31.675 12.2881C31.8867 12.4314 32.1345 12.5067 32.3931 12.5067C32.8201 12.5067 33.2148 12.2952 33.4519 11.9475C33.8467 11.3633 33.696 10.5676 33.1108 10.1733Z" fill="#000000" fill-opacity="1.000000" fill-rule="nonzero"/>
	<path id="Vector" d="M38.5129 0.316162C38.2544 0.0903625 37.917 -0.024353 37.6155 0.0043335C36.9119 0.0365906 36.3628 0.638763 36.3987 1.34131L36.8367 10.6392C36.8689 11.3202 37.4287 11.8579 38.1145 11.8579L38.1755 11.8579C38.8789 11.822 39.4246 11.2234 39.3923 10.5209L38.9543 1.22302C38.9365 0.878906 38.7786 0.549164 38.5129 0.319763L38.5129 0.316162Z" fill="#000000" fill-opacity="1.000000" fill-rule="nonzero"/>
	<path id="Vector" d="M49.8091 3.74646C49.5398 3.53497 49.2061 3.4418 48.865 3.4848C48.5242 3.52423 48.2227 3.69629 48.0107 3.96512L43.2151 10.0729C43.0034 10.3417 42.9102 10.6751 42.9531 11.0156C42.9927 11.3561 43.165 11.6572 43.4341 11.8687C43.6567 12.0443 43.9402 12.1411 44.2239 12.1411C44.6187 12.1411 44.9849 11.9619 45.2324 11.65L50.0281 5.54224C50.4624 4.98666 50.3655 4.18375 49.8091 3.74646Z" fill="#000000" fill-opacity="1.000000" fill-rule="nonzero"/>
	<path id="Vector" d="M89.8967 58.3079C89.7927 57.0677 89.6887 55.8275 89.5811 54.5837C89.4409 52.9492 89.2974 51.3148 89.1501 49.6838C89.0784 48.863 88.9995 48.0458 88.9204 47.1999L87.7502 46.1712L86.5945 45.1568C86.5945 45.1568 86.5945 45.1496 86.5945 45.1425C86.5908 45.1425 86.5874 45.1425 86.5801 45.1425L85.3274 44.0456C85.1084 41.8484 84.8931 39.6834 84.6777 37.5077C85.8801 37.4002 86.9929 37.2962 88.1201 37.1959C87.7358 33.0416 87.3555 28.9446 86.9751 24.8513L85.7939 23.8118C85.7939 23.8118 85.7939 23.7939 85.7939 23.7867C85.7869 23.7867 85.7761 23.7867 85.7688 23.7867L84.6274 22.7831C84.6274 22.7831 84.6274 22.7616 84.6238 22.7508C84.613 22.7508 84.606 22.7508 84.5952 22.7508L83.4644 21.7579C83.4644 21.7579 83.4644 21.7472 83.4644 21.74C83.4573 21.74 83.4536 21.74 83.4465 21.74L81.1384 19.7077L81.1384 19.7005C81.1384 19.7005 81.1348 19.7005 81.1313 19.7005L79.9861 18.6897C79.9861 18.6897 79.9861 18.6754 79.9861 18.6682C79.979 18.6682 79.9719 18.6682 79.9646 18.6682L78.8196 17.661C78.8196 17.661 78.8196 17.6431 78.8196 17.6323C78.8088 17.6323 78.8018 17.6323 78.7908 17.6323L77.6565 16.6323C77.6565 16.6323 77.6565 16.618 77.6565 16.6108C77.6458 16.6108 77.6423 16.6108 77.6316 16.6108L75.3235 14.582L74.1604 13.5605C74.1604 13.5605 74.1604 13.5533 74.1604 13.5461C74.1567 13.5461 74.1533 13.5461 74.146 13.5461L72.9939 12.5317C72.8359 12.5317 72.739 12.5246 72.6421 12.5317C71.2529 12.65 69.8601 12.7719 68.4709 12.8938C67.2793 12.9977 66.084 13.0981 64.8923 13.2056C63.2698 13.349 61.6438 13.4924 60.0212 13.6357C58.79 13.7433 57.5588 13.8472 56.3276 13.9512C54.9854 14.0659 53.6465 14.1877 52.304 14.3024C51.0728 14.41 49.8416 14.5103 48.6138 14.6179C47.0022 14.7577 45.3904 14.901 43.7788 15.0444C42.501 15.1555 41.2195 15.2774 39.9417 15.3813C39.1807 15.4423 38.4126 15.5283 37.6516 15.5211C36.9265 15.5139 36.2014 15.4028 35.4727 15.3383C34.2307 15.2308 32.9888 15.1233 31.7432 15.0157C30.1816 14.8795 28.6167 14.7361 27.0552 14.5999C25.8132 14.4924 24.5676 14.3885 23.3257 14.2773C21.7896 14.1411 20.2495 13.9978 18.7131 13.8615C17.1626 13.7253 15.6118 13.5999 14.0613 13.4637C12.5249 13.3275 10.9851 13.1841 9.44873 13.0443C7.82617 12.8973 6.2002 12.7504 4.57764 12.6106C4.07886 12.5676 3.57983 12.5425 3.05933 12.5067C2.95532 13.6644 2.85474 14.7684 2.75781 15.8724C2.64648 17.1484 2.53882 18.428 2.42407 19.7041C2.31274 20.955 2.198 22.2096 2.08667 23.4605C1.97534 24.7258 1.87134 25.9911 1.75635 27.2564C1.62012 28.8048 1.47998 30.3497 1.34351 31.8982C1.23242 33.1635 1.12476 34.4287 1.01343 35.694C0.876953 37.2425 0.737061 38.7874 0.600586 40.3358C0.482178 41.6369 0.36377 42.938 0.245117 44.2392C0.16626 45.1353 0.0944824 46.0314 0.00463867 46.9275C-0.00244141 47.0135 -0.00244141 47.0816 0.0119629 47.1425L0.0012207 47.3576L13.9714 59.5839C14.9226 59.6664 15.8345 59.7416 16.7427 59.8205C18.3184 59.9603 19.8906 60.1001 21.4663 60.2399C22.7444 60.3546 24.0256 60.4692 25.3037 60.5804C26.8184 60.713 28.3296 60.8456 29.8442 60.9782C31.1006 61.0858 32.3533 61.1897 33.6096 61.3008C35.146 61.437 36.686 61.5804 38.2222 61.7166C39.5 61.8277 40.7815 61.9317 42.063 62.0428C43.6389 62.179 45.2109 62.3188 46.7869 62.4622C48.0647 62.5769 49.3462 62.688 50.624 62.817C50.9041 62.8457 50.9937 62.7776 51.0081 62.4944C51.0295 62.0679 51.0728 61.6378 51.1121 61.2005L53.0398 62.8027C53.9336 62.731 54.8057 62.6701 55.678 62.5948C57.2646 62.455 58.8511 62.3045 60.4377 62.1683C61.9883 62.0356 63.5391 61.9174 65.0898 61.7811C66.949 61.6198 68.8049 61.4406 70.6643 61.2829C72.5093 61.1252 74.3579 60.9818 76.2029 60.8205C78.615 60.609 81.0237 60.3832 83.4358 60.1718C85.5391 59.989 87.6462 59.8133 89.7498 59.6448C89.9436 59.6305 90.0154 59.5624 89.9973 59.3724C89.9651 59.0176 89.9436 58.6591 89.9111 58.3043L89.8967 58.3079ZM36.5891 25.2885C29.2808 24.6469 22.0049 24.0089 14.6965 23.3673C14.6211 24.1917 14.5422 25.0126 14.4705 25.8334C14.4382 26.2133 14.4202 26.5969 14.3772 26.9768C14.3484 27.2169 14.4309 27.3066 14.6714 27.3245C17.342 27.5467 20.0127 27.7725 22.6833 28.0055C25.2068 28.2242 27.7266 28.4464 30.25 28.6722C31.0862 28.7475 31.9189 28.8299 32.8237 28.9124C32.6189 31.2279 32.418 33.5255 32.2097 35.8911C26.0503 35.3499 19.9194 34.8123 13.7273 34.271C13.5945 35.7836 13.4619 37.2711 13.3254 38.7838C20.6479 39.3716 27.8879 39.9558 35.1819 40.5437C34.9736 42.9165 34.7656 45.2643 34.5537 47.6873C23.9897 46.759 13.4546 45.8342 2.82959 44.9023C3.69824 35.0632 4.56348 25.2348 5.43213 15.3527C15.698 16.2559 25.9282 17.152 36.2122 18.0553C36.2983 20.4604 36.8188 22.8153 36.5781 25.2885L36.5891 25.2885ZM41.4348 47.6766C40.5769 37.8124 39.7263 28.0019 38.8647 18.1234C49.4575 17.2058 59.9998 16.2917 70.5889 15.3741C70.8115 17.7578 71.0269 20.1091 71.2493 22.5178C63.959 23.1487 56.6938 23.7795 49.3784 24.414C49.3784 24.5215 49.3713 24.6255 49.3784 24.7294C49.4717 25.8119 49.5759 26.8908 49.6584 27.9733C49.6763 28.2206 49.7446 28.3281 50.0137 28.303C51.0332 28.2098 52.0562 28.131 53.0791 28.045C54.3823 27.9338 55.6887 27.8156 56.9917 27.7008C58.2947 27.5862 59.5977 27.4714 60.9043 27.3568C62.1606 27.2492 63.4133 27.1417 64.6697 27.0341C65.6929 26.9445 66.7122 26.8621 67.7317 26.7617C68.2019 26.7151 68.1912 26.7115 68.2305 27.1811C68.3599 28.7403 68.5034 30.2995 68.6362 31.8587C68.6899 32.4609 68.7332 33.0595 68.7869 33.7011C68.2808 33.7513 67.7961 33.8086 67.3081 33.8517C65.7322 33.9843 64.1565 34.1097 62.5806 34.2459C60.7463 34.4036 58.9158 34.5793 57.0815 34.737C55.7786 34.8517 54.4719 34.9521 53.1653 35.0596C52.304 35.1313 51.4424 35.2137 50.5808 35.2782C50.3655 35.2961 50.3081 35.3929 50.3262 35.5865C50.3799 36.1743 50.4231 36.7657 50.4768 37.3536C50.5522 38.1744 50.6277 38.9952 50.7065 39.8304C57.9824 39.1458 65.2334 38.4648 72.5308 37.7801C72.739 40.1637 72.9436 42.5151 73.1519 44.9274C62.5554 45.845 52.0059 46.759 41.4241 47.6766L41.4348 47.6766Z" fill="#000000" fill-opacity="1.000000" fill-rule="nonzero"/>
</svg>
