<svg width="683.765625" height="228.000000" viewBox="0 0 683.766 228" fill="none" xmlns="http://www.w3.org/2000/svg" xmlns:xlink="http://www.w3.org/1999/xlink">
	<desc>
			Created with Pixso.
	</desc>
	<defs/>
	<path id="Vector" d="M435.089 184.721L435.089 216.887L462.331 216.887L462.331 228L420.646 228L420.646 184.736L435.089 184.736L435.089 184.721Z" fill="#FFFFFF" fill-opacity="1.000000" fill-rule="nonzero"/>
	<path id="Vector" d="M526.516 227.985L511.956 227.985L507.919 220.557L483.422 220.557L479.386 227.985L464.826 227.985L488.266 184.721L503.061 184.721L526.501 227.985L526.516 227.985ZM495.708 197.934L488.692 210.794L502.665 210.794L495.708 197.934Z" fill="#FFFFFF" fill-opacity="1.000000" fill-rule="nonzero"/>
	<path id="Vector" d="M582.877 208.724C584.55 210.339 585.387 212.659 585.387 215.654L585.387 215.888C585.387 220.293 583.567 223.405 579.927 225.211C576.287 227.016 571.047 227.956 564.237 227.985L529.921 227.985L529.921 184.721L566.923 184.721C571.443 184.765 575.054 185.69 577.74 187.525C580.426 189.36 581.776 191.944 581.776 195.306L581.776 195.541C581.776 198.081 581.248 200.136 580.191 201.736C579.135 203.336 577.564 204.525 575.451 205.303C578.724 205.964 581.204 207.109 582.877 208.724ZM564.428 201.531C565.338 201.428 566.116 201.09 566.761 200.503C567.407 199.916 567.73 198.947 567.73 197.582C567.73 196.334 567.422 195.438 566.791 194.895C566.174 194.352 565.367 194.014 564.398 193.867C563.43 193.735 562.006 193.662 560.127 193.662L543.41 193.662L543.41 201.619C547.417 201.619 550.073 201.634 551.365 201.677L560.127 201.677C562.079 201.677 563.503 201.633 564.428 201.531ZM566.967 218.017C568.053 217.885 568.934 217.489 569.594 216.843C570.255 216.197 570.592 215.169 570.592 213.774C570.592 212.38 570.255 211.426 569.594 210.823C568.934 210.222 568.053 209.854 566.967 209.708C565.881 209.576 564.237 209.502 562.05 209.502L543.395 209.502L543.395 218.149C548.884 218.149 552.803 218.149 555.122 218.179C557.441 218.193 559.026 218.208 559.893 218.208L562.05 218.208C564.237 218.208 565.866 218.135 566.967 218.002L566.967 218.017Z" fill="#FFFFFF" fill-opacity="1.000000" fill-rule="nonzero"/>
	<path id="Vector" d="M314.822 22.3672L297.033 10.2996C295.756 9.43335 294.009 9.771 293.129 11.0483C292.263 12.3254 292.601 14.0872 293.877 14.9534L311.667 27.021C312.136 27.3291 312.679 27.5054 313.237 27.5054C314.176 27.5054 315.042 27.0503 315.571 26.2722C316.437 24.9951 316.099 23.2334 314.822 22.3672Z" fill="#FFFFFF" fill-opacity="1.000000" fill-rule="nonzero"/>
	<path id="Vector" d="M326.682 0.698486C326.109 0.199219 325.375 -0.050293 324.715 0.00854492C323.174 0.0817871 321.97 1.40308 322.044 2.94458L323.012 23.3948C323.086 24.8923 324.319 26.0667 325.816 26.0667L325.948 26.0667C327.489 25.9934 328.692 24.6721 328.619 23.1306L327.65 2.68042C327.621 1.93164 327.269 1.19751 326.682 0.698486Z" fill="#FFFFFF" fill-opacity="1.000000" fill-rule="nonzero"/>
	<path id="Vector" d="M351.486 8.22925C350.899 7.75952 350.166 7.55396 349.417 7.65674C348.668 7.74487 348.008 8.12646 347.538 8.71387L337.014 22.1467C336.544 22.7339 336.339 23.468 336.442 24.2166C336.53 24.9653 336.912 25.626 337.499 26.0957C337.998 26.4775 338.614 26.6978 339.23 26.6978C340.097 26.6978 340.904 26.3013 341.447 25.626L351.971 12.1931C352.925 10.9746 352.719 9.19824 351.486 8.24414L351.486 8.22925Z" fill="#FFFFFF" fill-opacity="1.000000" fill-rule="nonzero"/>
	<path id="Vector" d="M459.674 72.7664L459.674 55.2375C460.085 55.2083 460.394 55.1641 460.716 55.1641C471.856 55.1641 483.012 55.1348 494.152 55.1641C495.487 55.1641 496.823 55.3257 498.144 55.5312C501.446 56.0745 503.648 58.1885 504.132 61.7852C504.984 68.1272 503.252 71.2542 497.821 72.3406C495.825 72.7371 493.711 72.7371 491.657 72.7371C482.131 72.781 472.59 72.7664 463.065 72.7664C461.964 72.7664 460.863 72.7664 459.66 72.7664L459.674 72.7664Z" fill="#FFFFFF" fill-opacity="1.000000" fill-rule="nonzero"/>
	<path id="Vector" d="M683.741 123.723C683.507 116.441 681.129 110.114 675.478 105.254C675.331 105.122 675.214 104.946 674.891 104.564L683.624 104.564C683.624 100.645 683.844 96.9744 683.58 93.3337C682.978 85.3032 679.925 78.3887 673.775 72.9714C669.886 69.551 666.055 66.0569 662.195 62.5923C653.564 54.8555 644.949 47.1189 636.289 39.3967C631.152 34.8164 624.855 32.5996 618.412 30.7351C606.949 27.4172 595.251 26.4336 583.362 26.9915C572.794 27.4907 562.432 29.0469 552.378 32.4087C544.907 34.9043 538.889 39.1912 535.161 46.3259C535.058 46.5022 534.882 46.6489 534.662 46.8984C534.075 46.3848 533.546 45.9004 533.003 45.4451C529.011 42.1714 525.254 38.5012 520.938 35.7119C512.88 30.4856 503.663 29.1201 494.24 29.1055C472.268 29.0762 450.311 29.1055 428.338 29.1055L426.68 29.1055C425.917 29.9717 426.973 31.8362 425.227 31.5571C424.669 31.4692 424.36 29.8982 423.832 28.812L326.931 37.2239L232.247 28.6064C231.973 31.0042 231.258 32.0857 230.104 31.8508C230.045 31.0728 229.972 30.2654 229.913 29.4727L188.111 29.4727L188.111 54.7969L159.299 29.4727L117.542 29.4727L117.542 52.4038C114.225 49.4382 111.201 46.8105 108.28 44.0798C102.454 38.6626 95.8926 34.4641 88.4219 31.7188C75.9019 27.1089 63.0298 26.1841 49.9082 28.0779C36.9331 29.9424 25.147 34.6548 15.4014 43.6101C2.85205 55.1492 -2.27051 69.3894 0.929199 86.2869C2.88135 96.6074 8.53223 104.799 16.2378 111.714C28.4346 122.651 40.6465 133.573 52.8433 144.511C58.6704 149.737 65.29 153.657 72.6143 156.431C85.4863 161.305 98.7695 162.172 112.258 160.219C122.503 158.736 132.014 155.213 140.248 148.827C140.879 148.342 141.481 148.049 142.083 147.887L155.249 158.898L197.064 158.898L197.064 133.588L226.038 158.986C226.948 158.986 227.608 158.986 228.269 158.986C241.669 158.854 255.07 158.648 268.471 158.634C272.125 158.634 275.795 159.162 279.449 159.485C286.26 160.087 293.085 160.718 299.896 161.32C305.664 161.819 311.432 162.274 317.2 162.788C324.128 163.405 331.056 164.051 337.983 164.667C344.016 165.21 350.063 165.754 356.11 166.268C358.312 166.458 360.528 166.59 362.906 166.767C363.053 165.167 363.199 163.742 363.317 162.318C363.419 161.056 364.021 160.703 365.107 161.188C365.269 162.186 365.43 163.082 365.577 164.007C366.561 163.918 367.309 163.845 368.175 163.757C368.366 164.785 368.542 165.68 368.718 166.605C369.628 166.605 370.45 166.664 371.272 166.605C377.202 166.091 383.131 165.548 389.061 165.034C395.93 164.447 402.814 163.889 409.683 163.287C417.11 162.641 424.537 161.981 431.963 161.335C436.176 160.968 440.388 160.557 444.601 160.248C451.529 159.749 458.442 159.015 465.37 158.898C477.743 158.677 490.116 158.81 502.503 158.868C504.089 158.868 504.441 158.34 504.426 156.857C504.353 149.62 504.397 142.382 504.397 135.13L504.397 132.81C505.513 133.706 506.246 134.219 506.892 134.821C508.418 136.245 509.872 137.743 511.428 139.137C512.88 140.429 514.48 141.545 515.934 142.852C517.519 144.276 518.986 145.847 520.542 147.315C521.408 148.137 522.348 148.871 523.243 149.664C524.505 150.794 525.724 151.983 527 153.099C528.674 154.567 530.479 155.888 532.035 157.459C532.989 158.413 533.899 158.839 535.234 158.839C550.734 158.81 566.233 158.824 581.733 158.81C582.305 158.81 582.893 158.751 583.875 158.692C576.757 150.412 569.917 142.455 563.063 134.484C563.782 134.689 564.296 135.1 564.78 135.541C569.257 139.549 573.777 143.527 578.21 147.594C581.835 150.926 585.975 153.348 590.568 155.052C602.501 159.514 614.86 161.438 627.57 161.423C639.826 161.408 651.759 159.617 663.251 155.257C668.212 153.378 672.689 150.735 676.256 146.742C682.142 140.165 684.006 132.267 683.741 123.693L683.741 123.723ZM44.4185 94.1118C54.8545 101.76 70.9849 101.158 80.3931 92.5996C82.2427 90.9114 83.5049 88.5771 85.1045 86.5952C85.501 86.1108 86.1465 85.5088 86.6753 85.4941C95.4814 85.4207 104.288 85.4502 113.095 85.4502C113.315 85.4502 113.521 85.5088 114.02 85.5969C113.388 87.5642 112.889 89.4873 112.155 91.3225C107.356 103.302 98.6372 111.464 86.6753 115.781C66.2002 123.18 46.1504 122.02 27.2314 110.745C18.146 105.328 11.394 97.6057 8.64941 87.197C4.8042 72.678 8.78174 60.126 19.4814 49.7466C27.2163 42.23 36.7129 38.002 47.1777 35.9175C60.0942 33.3481 72.8931 33.8181 85.3687 38.3396C97.4043 42.7146 106.695 50.2458 111.803 62.2693C112.757 64.5007 113.388 66.8496 114.239 69.3601C113.432 69.4187 112.948 69.4922 112.478 69.4922C104.112 69.4922 95.7607 69.5068 87.3945 69.4629C86.7925 69.4629 85.8384 69.1545 85.6328 68.7141C82.3745 61.8877 76.6211 58.1587 69.6348 56.3823C58.5532 53.5784 48.4551 55.7656 40.6025 64.3833C32.4858 73.2798 34.438 86.8008 44.4331 94.1265L44.4185 94.1118ZM222.691 117.865L195.685 117.865L195.685 87.021L152.21 87.021L152.21 117.88L125.042 117.88L125.042 36.6514L152.151 36.6514L152.151 65.3669L195.582 65.3669L195.582 36.6809L222.677 36.6809L222.677 117.88L222.691 117.865ZM322.396 63.5906C314.147 62.7537 305.884 62.1665 297.62 61.4473C286.92 60.5076 276.235 59.4946 265.55 58.5256C265.168 58.4963 264.787 58.5256 264.244 58.5256C263.906 61.9023 263.554 65.0439 263.348 68.2002C263.319 68.5674 264.023 69.3159 264.449 69.3455C269.821 69.8738 275.193 70.2849 280.565 70.7546C286.436 71.2686 292.307 71.8118 298.178 72.3257C302.449 72.7073 306.72 73.0596 310.977 73.4265C311.916 73.5 312.841 73.6028 313.971 73.7202C313.413 80.1504 312.855 86.4189 312.298 92.8787C295.36 91.3958 278.598 89.9277 261.602 88.4304C261.22 92.5996 260.853 96.6074 260.472 100.821C280.536 102.436 300.409 104.051 320.473 105.666C319.886 112.228 319.328 118.629 318.727 125.279C289.738 122.724 260.853 120.185 231.66 117.63C234.037 90.5884 236.415 63.6199 238.808 36.5046C241.567 36.7249 244.165 36.9009 246.748 37.1211C252.516 37.6204 258.27 38.1489 264.023 38.6626C271.171 39.3086 278.319 39.9546 285.467 40.5859C290.957 41.0703 296.431 41.5254 301.921 42.01C307.748 42.509 313.56 43.0229 319.372 43.5513C320.62 43.6687 322.234 43.5073 322.998 44.2266C323.673 44.8579 323.453 46.5168 323.541 47.7207C323.864 52.3745 324.128 57.0283 324.436 61.6968C324.539 63.2087 324.187 63.7666 322.381 63.5906L322.396 63.5906ZM417.902 118.306C410.637 118.951 403.386 119.583 396.121 120.214C390.235 120.713 384.364 121.168 378.479 121.682C371.551 122.284 364.623 122.93 357.695 123.532C351.325 124.09 344.94 124.648 338.57 125.117C338.233 125.147 337.543 124.383 337.499 123.928C337.073 119.774 336.765 115.619 336.398 111.464C335.767 104.212 335.121 96.9597 334.49 89.7075C333.874 82.6167 333.301 75.5259 332.699 68.4351C332.098 61.5059 331.467 54.5913 330.865 47.6619C330.762 46.5168 330.733 45.3572 330.659 44.0505C359.779 41.5254 388.591 39.0298 417.638 36.5193C418.255 43.0815 418.842 49.4678 419.458 56.0593C417.228 56.2942 415.099 56.5437 412.956 56.72C405.852 57.3218 398.748 57.8796 391.659 58.4963C383.396 59.2156 375.147 59.979 366.898 60.7131C364.902 60.8892 362.906 61.0508 360.91 61.1536C360 61.1975 359.427 61.3884 359.53 62.5042C359.823 65.6458 360.059 68.8022 360.323 72.1055C377.26 70.6372 394.081 69.1838 411.062 67.7158C411.635 74.1313 412.178 80.3706 412.75 86.8889C395.798 88.3569 378.934 89.8396 362.025 91.3076C362.333 95.1248 362.686 98.8242 362.935 102.524C363.009 103.64 363.625 103.61 364.403 103.552C367.5 103.287 370.611 103.038 373.708 102.744C379.198 102.23 384.672 101.702 390.162 101.173C396.635 100.557 403.122 99.9399 409.595 99.3235C413.646 98.9417 417.682 98.5601 421.733 98.1929C422.115 98.1636 422.497 98.2371 423.04 98.2664C423.597 104.667 424.141 111.009 424.728 117.66C422.423 117.88 420.177 118.115 417.946 118.32L417.902 118.306ZM528.747 117.953C519.383 117.953 510.019 117.953 500.654 117.983C499.553 117.983 498.79 117.674 498.071 116.823C491.143 108.69 484.201 100.571 477.214 92.4968C476.833 92.0564 476.143 91.6455 475.585 91.6455C470.345 91.5867 465.105 91.6013 459.63 91.6013L459.63 117.851C458.853 117.895 458.31 117.953 457.767 117.953C450.296 117.953 442.825 117.909 435.369 117.997C433.842 118.012 433.519 117.513 433.519 116.089C433.549 90.1479 433.563 64.1924 433.519 38.2517C433.519 36.813 433.886 36.3579 435.383 36.3579C455.667 36.4165 475.952 36.343 496.236 36.4312C503.281 36.4604 510.077 37.8406 516.315 41.3198C526.223 46.8691 530.758 55.3547 529.818 66.644C528.938 77.1702 523.228 84.217 513.659 88.2834C511.574 89.1643 509.358 89.7661 507.01 90.5591C514.774 99.5876 522.509 108.587 530.464 117.821C529.687 117.895 529.217 117.968 528.762 117.968L528.747 117.953ZM638.74 95.3157C637.654 105.68 631.548 111.905 621.993 115.281C609.899 119.553 597.452 121.021 584.683 120.434C574.027 119.935 563.694 117.968 553.801 113.916C544.07 109.938 538.816 101.643 539.227 91.2783L567.07 91.2783C567.129 91.5132 567.217 91.7188 567.246 91.939C567.921 97.3562 569.785 99.6462 575.113 100.938C584.507 103.214 593.944 103.669 603.323 100.835C604.997 100.322 606.611 99.4702 608.108 98.5308C610.001 97.3562 610.97 95.4624 611.337 93.2749C611.807 90.4121 610.647 88.4597 607.991 87.2852C603.558 85.3181 598.832 85.0537 594.106 84.9363C586.694 84.7454 579.282 84.8188 571.87 84.5251C565.587 84.2756 559.276 83.8499 553.332 81.5452C541.927 77.1116 538.008 69.9033 539.388 57.6594C540.459 48.1758 545.875 42.2449 554.829 39.2939C567.745 35.0366 581.028 33.73 594.546 34.2439C604.527 34.6255 614.199 36.5339 623.534 40.116C633.266 43.845 638.975 51.9341 638.946 62.1519C638.946 62.5334 638.901 62.9153 638.872 63.4731L611.558 63.4731C611.469 63.2236 611.337 62.9739 611.308 62.7244C610.897 59.1128 608.725 56.72 605.51 55.6042C601.812 54.3123 597.966 53.1672 594.091 52.668C587.237 51.7871 580.397 52.3599 573.792 54.5471C572.236 55.061 570.666 55.8245 569.404 56.8521C565.91 59.7002 566.307 64.7798 570.402 66.6294C573.278 67.936 576.537 68.7434 579.692 69.0371C585.167 69.5361 590.701 69.6389 596.205 69.6096C604.791 69.5657 613.377 69.6096 621.802 71.4888C626.734 72.5898 631.181 74.7773 634.645 78.5354C639.048 83.3362 639.416 89.2817 638.784 95.345L638.74 95.3157Z" fill="#FFFFFF" fill-opacity="1.000000" fill-rule="nonzero"/>
</svg>
