<svg width="128.000000" height="128.000000" viewBox="0 0 128 128" fill="none" xmlns="http://www.w3.org/2000/svg" xmlns:xlink="http://www.w3.org/1999/xlink">
	<desc>
			Created with Pixso.
	</desc>
	<defs/>
	<path id="Vector" d="M64 0C28.6543 0 0 28.6537 0 64C0 99.3463 28.6543 128 64 128C99.3457 128 128 99.3463 128 64C128 28.6537 99.3457 0 64 0ZM86.1201 67.3925L54.1201 87.3925C53.4724 87.7968 52.7363 88 52 88C51.333 88 50.665 87.834 50.0605 87.498C48.7891 86.793 48 85.455 48 84L48 44C48 42.545 48.7891 41.207 50.0605 40.502C51.332 39.793 52.8867 39.836 54.1201 40.6075L86.1201 60.6075C87.2891 61.34 88 62.6213 88 64C88 65.3788 87.2891 66.6603 86.1201 67.3925Z" fill="#FFFFFF" fill-opacity="0.540000" fill-rule="nonzero"/>
</svg>
